HIERARCHY
ROOT Hips
{
	OFFSET 0.00000 0.00000 0.00000
	CHANNELS 6 Xposition Yposition Zposition Zrotation Yrotation Xrotation 
	JOINT LHipJoint
	{
		OFFSET 0 0 0
		CHANNELS 3 Zrotation Yrotation Xrotation
		JOINT LeftHip
		{
			OFFSET 1.62964 -1.40469 0.78906
			CHANNELS 3 Zrotation Yrotation Xrotation
			JOINT LeftKnee
			{
				OFFSET 2.29640 -6.30932 0.00000
				CHANNELS 3 Zrotation Yrotation Xrotation
				JOINT LeftAnkle
				{
					OFFSET 2.29451 -6.30412 0.00000
					CHANNELS 3 Zrotation Yrotation Xrotation
					JOINT LeftToe
					{
						OFFSET 0.03611 -0.09921 1.56387
						CHANNELS 3 Zrotation Yrotation Xrotation
						End Site
						{
							OFFSET 0.00000 -0.00000 0.80291
						}
					}
				}
			}
		}
	}
	JOINT RHipJoint
	{
		OFFSET 0 0 0
		CHANNELS 3 Zrotation Yrotation Xrotation
		JOINT RightHip
		{
			OFFSET -1.73712 -1.40469 0.78906
			CHANNELS 3 Zrotation Yrotation Xrotation
			JOINT RightKnee
			{
				OFFSET -2.28137 -6.26801 0.00000
				CHANNELS 3 Zrotation Yrotation Xrotation
				JOINT RightAnkle
				{
					OFFSET -2.28681 -6.28298 0.00000
					CHANNELS 3 Zrotation Yrotation Xrotation
					JOINT RightToe
					{
						OFFSET -0.15927 -0.43759 1.61103
						CHANNELS 3 Zrotation Yrotation Xrotation
						End Site
						{
							OFFSET -0.00000 -0.00000 0.84630
						}
					}
				}
			}
		}
	}
	JOINT lowerback
	{
		OFFSET 0 0 0
		CHANNELS 3 Zrotation Yrotation Xrotation
		JOINT Chest
		{
			OFFSET -0.04227 2.04338 -0.00225
			CHANNELS 3 Zrotation Yrotation Xrotation
			JOINT Chest2
			{
				OFFSET -0.02148 2.04482 -0.04273
				CHANNELS 3 Zrotation Yrotation Xrotation
				JOINT lowerneck
				{
					OFFSET 0 0 0
					CHANNELS 3 Zrotation Yrotation Xrotation
					JOINT Neck
					{
						OFFSET 0.09180 1.44629 0.19359
						CHANNELS 3 Zrotation Yrotation Xrotation
						JOINT Head
						{
							OFFSET 0.00887 1.40645 0.14750
							CHANNELS 3 Zrotation Yrotation Xrotation
							End Site
							{
								OFFSET -0.00669 1.50671 0.03707
							}
						}
					}
				}
				JOINT LeftCollar
				{
					OFFSET 0 0 0
					CHANNELS 3 Zrotation Yrotation Xrotation
					JOINT LeftShoulder
					{
						OFFSET 2.17674 1.86763 -0.06520
CHANNELS 3 Zrotation Xrotation Yrotation
						JOINT LeftElbow
						{
OFFSET 0 -4.657760 0.000000
CHANNELS 3 Zrotation Xrotation Yrotation
							JOINT LeftWrist
							{
OFFSET 0 -3.555390 0.000000
CHANNELS 3 Zrotation Xrotation Yrotation
								JOINT lhand
								{
									OFFSET 0 0 0
CHANNELS 3 Zrotation Xrotation Yrotation
									JOINT LFingers
									{
OFFSET 0 -0.707260 0.000000
CHANNELS 3 Zrotation Xrotation Yrotation
										End Site
										{
OFFSET 0 -0.570220 0.000000
										}
									}
								}
								JOINT LThumb
								{
OFFSET 0 0.000000 0.000000
CHANNELS 3 Zrotation Xrotation Yrotation
									End Site
									{
OFFSET 0 -0.578920 0.578920
									}
								}
							}
						}
					}
				}
				JOINT RightCollar
				{
					OFFSET 0 0 0
					CHANNELS 3 Zrotation Yrotation Xrotation
					JOINT RightShoulder
					{
						OFFSET -2.80694 1.55459 -0.32496
CHANNELS 3 Zrotation Xrotation Yrotation
						JOINT RightElbow
						{
OFFSET 0 -4.719250 -0.000000
CHANNELS 3 Zrotation Xrotation Yrotation
							JOINT RightWrist
							{
OFFSET 0 -3.569900 0.000000
CHANNELS 3 Zrotation Xrotation Yrotation
								JOINT rhand
								{
									OFFSET 0 0 0
CHANNELS 3 Zrotation Xrotation Yrotation
									JOINT RFingers
									{
OFFSET 0 -0.507760 0.000000
CHANNELS 3 Zrotation Xrotation Yrotation
										End Site
										{
OFFSET 0 -0.409370 0.000000
										}
									}
								}
								JOINT RThumb
								{
OFFSET 0 0.000000 0.000000
CHANNELS 3 Zrotation Xrotation Yrotation
									End Site
									{
OFFSET 0 -0.415620 0.415620
									}
								}
							}
						}
					}
				}
			}
		}
	}
}
MOTION
Frames: 8
Frame Time: 0.008333333333333333
22.654400 16.383800 30.693900 178.417000 -0.448500 -153.108000 0.000000 0.000000 0.000000 -17.567000 -17.131000 -20.136000 0.211100 2.958200 8.162300 0.145500 -3.843600 -6.890600 2.477700 -9.797300 -28.322900 0.000000 0.000000 0.000000 18.775700 12.348700 -18.342200 -0.064500 -1.638500 4.507600 -0.963200 -2.644600 -19.671300 -3.592700 11.597700 -34.323300 -7.034600 -1.339400 -30.916700 -0.653100 0.025300 -1.472400 3.026000 -0.748100 14.494300 -4.782700 -1.484700 1.967900 11.968000 -2.403800 0.143800 4.854900 -1.399900 -0.084500 0.000000 0.000000 0.000000 5.890500 -2.855600 -22.680200 13.094400 -21.425400 2.487700 22.028000 -0.507900 8.751600 0.000000 0.000000 0.000000 -7.125000 0.000000 0.000000 -3.504000 20.559100 -2.054100 0.000000 0.000000 0.000000 3.102900 4.261300 4.785100 -15.469800 -24.796500 -3.420600 -10.710900 8.276000 56.279900 0.000000 0.000000 0.000000 7.125000 0.000000 -0.000000 80.057500 75.851200 -65.389700
22.653703 16.381097 30.691772 178.444407 -0.489352 -153.104037 0.000000 0.000000 0.000000 -17.587781 -16.968164 -20.192630 0.212686 2.969154 8.192967 0.131881 -3.822586 -6.586745 2.370108 -9.597592 -27.683365 0.000000 0.000000 0.000000 18.804987 12.383697 -18.345384 -0.065334 -1.648971 4.536612 -0.964986 -2.645513 -19.688756 -3.469932 11.419077 -33.707029 -6.986148 -1.394807 -31.020948 -0.584237 -0.060266 -1.440467 3.039599 -0.787067 14.588014 -4.828674 -1.256709 1.777251 12.016975 -2.122947 0.419309 4.878378 -1.250260 0.013402 0.000000 0.000000 0.000000 5.783465 -2.681720 -22.971944 13.717607 -22.329365 2.720018 23.075228 -1.313430 9.168887 0.000000 0.000000 0.000000 -7.125000 0.000000 0.000000 -2.762411 20.034582 -1.650703 0.000000 0.000000 0.000000 2.985937 4.218316 4.759423 -15.373617 -24.663994 -3.380342 -11.583522 8.853918 54.413269 0.000000 0.000000 0.000000 7.125000 0.000000 0.000000 72.453059 75.917244 -58.149970
22.653638 16.382156 30.689271 178.345713 -0.372549 -153.145706 0.000000 0.000000 0.000000 -17.773005 -16.921515 -20.092124 0.209863 2.949338 8.137702 0.130300 -3.610204 -6.516436 2.435848 -9.719923 -28.074871 0.000000 0.000000 0.000000 18.668250 12.446415 -18.303401 -0.067303 -1.673513 4.604174 -0.969086 -2.651302 -19.730812 -3.469705 11.418541 -33.705429 -7.081890 -1.386937 -31.049553 -0.617524 -0.003625 -1.399649 3.077631 -0.768366 14.641145 -4.841205 -1.235170 1.738617 12.016049 -2.134915 0.817700 4.877146 -1.248234 0.150906 0.000000 0.000000 0.000000 5.779172 -2.724440 -23.607087 14.109234 -22.890487 2.870535 23.318970 -1.779320 8.281417 0.000000 0.000000 0.000000 -7.125000 0.000000 0.000000 -2.561728 20.977310 -1.476391 0.000000 0.000000 0.000000 3.042021 4.215715 4.443786 -15.322495 -24.593398 -3.359019 -12.511542 9.613527 53.070918 0.000000 0.000000 0.000000 7.125000 0.000000 0.000000 66.868816 75.940922 -52.990124
22.651808 16.380712 30.682123 178.291190 -0.386255 -153.237942 0.000000 0.000000 0.000000 -17.864769 -17.012206 -19.873314 0.205580 2.919331 8.054137 0.136169 -3.572225 -6.643255 2.562416 -9.950533 -28.816599 0.000000 0.000000 0.000000 18.636451 12.296860 -18.171942 -0.065104 -1.646348 4.529295 -0.961310 -2.748492 -19.705655 -3.593307 11.598443 -34.325946 -7.100129 -1.371554 -31.040861 -0.637973 0.031655 -1.371712 3.079981 -0.752827 14.666110 -4.828173 -1.183694 1.738067 12.143125 -2.111457 1.131852 4.920083 -1.236293 0.252078 0.000000 0.000000 0.000000 5.789682 -2.705905 -24.103096 14.389865 -23.289232 2.980550 22.094873 -1.870008 8.006822 0.000000 0.000000 0.000000 -7.125000 0.000000 0.000000 -3.442540 21.353597 -1.955546 0.000000 0.000000 0.000000 3.069474 4.321573 4.140314 -15.310752 -24.577198 -3.354111 -13.661838 10.255816 51.254535 0.000000 0.000000 0.000000 7.125000 0.000000 0.000000 59.405364 75.757988 -46.101496
22.655068 16.380313 30.681625 178.227192 -0.350959 -153.183474 0.000000 0.000000 0.000000 -17.900293 -16.988559 -19.952922 0.204198 2.909890 8.027970 0.132985 -3.703494 -6.592256 2.379566 -9.615442 -27.740311 0.000000 0.000000 0.000000 18.559465 12.389747 -18.192572 -0.064623 -1.639806 4.511156 -0.968445 -2.695714 -19.746667 -3.555136 11.543597 -34.135971 -7.215805 -1.396771 -31.091141 -0.622212 0.036643 -1.380334 3.160245 -0.760555 14.675598 -4.907364 -1.347716 2.011170 12.140809 -2.360493 1.311310 4.937449 -1.366131 0.285844 0.000000 0.000000 0.000000 5.796927 -2.728245 -24.429263 14.637562 -23.638780 3.079209 23.406715 -2.280678 8.348084 0.000000 0.000000 0.000000 -7.125000 0.000000 0.000000 -2.500068 20.898929 -1.445167 0.000000 0.000000 0.000000 2.964624 4.474317 4.216384 -15.352565 -24.634989 -3.371581 -13.710085 10.025046 51.075828 0.000000 0.000000 0.000000 7.125000 0.000000 0.000000 58.725273 75.702933 -45.449963
22.652185 16.380031 30.674756 178.274257 -0.205273 -153.267917 0.000000 0.000000 0.000000 -17.968093 -16.881960 -19.773138 0.200513 2.883604 7.954885 0.138029 -3.613915 -6.690827 2.545311 -9.918661 -28.714841 0.000000 0.000000 0.000000 18.657214 12.054204 -18.196447 -0.064143 -1.634482 4.496462 -0.981512 -2.173008 -19.617727 -3.616214 11.631371 -34.439998 -7.122794 -1.409442 -31.129275 -0.552471 -0.006574 -1.321686 3.169697 -0.775561 14.768507 -5.001569 -1.311280 2.129049 12.417969 -2.325465 1.406563 4.616511 -1.346062 0.264757 0.000000 0.000000 0.000000 5.679882 -2.821774 -24.488683 14.756136 -23.805299 3.126892 22.789264 -1.953827 7.633321 0.000000 0.000000 0.000000 -7.125000 0.000000 0.000000 -2.931887 21.712174 -1.640166 0.000000 0.000000 0.000000 2.755129 4.542093 4.400475 -15.360625 -24.646061 -3.374907 -12.612178 9.059460 50.624150 0.000000 0.000000 0.000000 7.125000 0.000000 0.000000 57.833047 75.085777 -44.042990
22.641639 16.386096 30.674123 177.761416 -0.033382 -153.086082 0.000000 0.000000 0.000000 -18.637062 -17.152850 -19.871834 0.201014 2.886885 7.964017 0.131875 -3.545950 -6.541166 2.326125 -9.510767 -27.409639 0.000000 0.000000 0.000000 17.975030 11.588762 -18.602138 -0.065714 -1.653827 4.549865 -0.989603 -1.786749 -19.517260 -3.604133 11.614193 -34.380364 -7.512502 -1.571882 -31.261561 -0.616136 -0.084980 -1.371370 3.272515 -0.842219 14.768028 -5.198148 -1.337963 2.428605 12.127070 -2.373728 1.602681 4.672756 -1.370161 0.281816 0.000000 0.000000 0.000000 5.531508 -3.267555 -24.219296 14.336656 -23.213547 2.959769 21.931400 -2.077820 8.706582 0.000000 0.000000 0.000000 -7.125000 0.000000 0.000000 -3.574156 20.612416 -2.088209 0.000000 0.000000 0.000000 2.523394 4.634699 4.613002 -15.363451 -24.649929 -3.376048 -14.784613 11.208307 53.535015 0.000000 0.000000 0.000000 7.125000 0.000000 0.000000 67.965480 76.945681 -55.079918
22.650248 16.383395 30.672476 178.057087 -0.111732 -153.181644 0.000000 0.000000 0.000000 -18.229202 -16.997619 -19.845567 0.202115 2.894542 7.985295 0.132540 -3.561795 -6.560923 2.339909 -9.538680 -27.497053 0.000000 0.000000 0.000000 18.354104 11.888720 -18.352801 -0.063917 -1.630458 4.485464 -0.978454 -2.101406 -19.555687 -3.592178 11.596937 -34.320589 -7.305760 -1.571008 -31.205829 -0.453762 -0.168695 -1.340066 3.307929 -0.865381 14.795311 -5.339607 -1.066442 1.935783 12.528280 -2.065775 2.073575 4.632790 -1.196023 0.465354 0.000000 0.000000 0.000000 5.485649 -3.126112 -24.438969 14.585022 -23.564159 3.058472 23.653443 -3.155589 9.680321 0.000000 0.000000 0.000000 -7.125000 0.000000 0.000000 -2.366487 19.435458 -1.445377 0.000000 0.000000 0.000000 2.397843 4.602482 4.396498 -15.276132 -24.529357 -3.339765 -14.982369 11.588175 53.187228 0.000000 0.000000 0.000000 7.125000 0.000000 0.000000 66.401278 76.934377 -53.622471
